<?xml version="1.0" encoding="iso-8859-1"?>
<!-- Generator: Adobe Illustrator 16.0.0, SVG Export Plug-In . SVG Version: 6.00 Build 0)  -->
<!DOCTYPE svg PUBLIC "-//W3C//DTD SVG 1.1//EN" "http://www.w3.org/Graphics/SVG/1.1/DTD/svg11.dtd">
<svg version="1.1" id="Capa_1" xmlns="http://www.w3.org/2000/svg" xmlns:xlink="http://www.w3.org/1999/xlink" x="0px" y="0px"
	 width="975.711px" height="975.711px" viewBox="0 0 975.711 975.711" style="enable-background:new 0 0 975.711 975.711;"
	 xml:space="preserve">
<g>
	<path d="M522.22,797.502c-14.3-3.301-32.7-1.4-46.101,4.6c-12.899,5.7-23.8,15.7-30.5,28.1c-4.399,8.101-6.899,17.2-7.3,26.4
		c-0.6,13.7,4.601,28.8,12.5,40.2c3.9,5.6,8.3,10.2,12.601,13.899c6.899,6.2,15.1,10.301,23.8,13.301c0.2,0.1,0.2,0.1,0.2,0.1
		s-0.101,0-0.2,0c-16.101-3.2-30.601-11-41.8-23c-5.101-5.5-9.9-12.1-13.801-20c-10.1-20.9-8.899-43.5-0.3-64.5
		c9.3-22.6,31.101-40.1,54.2-46.8c5-1.5,10.6-2.4,15.9-3c3.8-0.4,7.5-0.9,11.199-1.3c73.301-65,200.5-113.5,194.9-252.301
		c-5.5-136.8-80.2-211.899-125.2-244.899c49.3-9.4,84.5-42,84.5-42l97.7,62c5.5,3.5,12.8,1.5,15.7-4.3l26.6-52.8
		c3.8-7.6-2.1-16.5-10.6-15.9c-30.601,2.1-90.5-6.7-146.2-91.3c-59.6-90.7-143.2-123.4-202.6-124c-6.4-0.1-11.601,5.4-11.101,11.8
		c1.9,25.3-2.6,84.9-84.1,96.8c-2.5,0.4-4.8,1.6-6.5,3.4c-15,16.4-83.6,100.4-36.4,224.7c12.4-0.3,26,0,40.3,1
		c37.9,2.7,75.9,10.7,110.4,27.1c2,0.9,3.9,1.9,5.9,2.9c21.6,11,41.399,25.5,57.899,43.3c4.8,5.3,9.3,10.899,13.7,16.6
		c1,1.4,1.8,2.6,2.5,3.5c1.3,1.9,2,2.9,2,2.9s-0.9-0.9-2.5-2.601c-0.8-0.8-1.8-1.899-3-3c-21.5-21.2-47.9-36.899-76.6-46.1
		c-36.9-11.9-76.7-13.7-115.101-9.9c-24.7,2.5-50.5,6.4-74.1,14.4c-43.6,14.899-78.5,38.2-98.7,53.7c-7.6,5.8-4.6,17.8,4.8,19.5
		c97.3,17.8,165.2,71.3,185,88.5c3.6,3.1,8.8,3.6,12.9,1.1c16.3-9.9,55.399-33.7,55.399-33.6c46.2,81.8-21.3,149.6-48.6,191.3
		c-33.2,50.6-61.5,115.8-40.9,177.5c19,56.7,74.3,97.6,135,90c20.7-2.601,40.7-10,59.101-19.8c31.1-16.601,52.899-43.5,51.5-80.301
		C584.72,836.602,557.619,805.602,522.22,797.502z M527.319,142.302c-0.6-13.8,10.2-25.5,24-26c13.8-0.6,25.5,10.2,26,24
		c0.601,13.8-10.2,25.5-24,26C539.52,166.901,527.819,156.102,527.319,142.302z"/>
</g>
<g>
</g>
<g>
</g>
<g>
</g>
<g>
</g>
<g>
</g>
<g>
</g>
<g>
</g>
<g>
</g>
<g>
</g>
<g>
</g>
<g>
</g>
<g>
</g>
<g>
</g>
<g>
</g>
<g>
</g>
</svg>
