<?xml version="1.0"?>
<svg width="1000" height="1000" xmlns="http://www.w3.org/2000/svg">
 <!-- Created with Method Draw - http://github.com/duopixel/Method-Draw/ -->

 <g>
  <title>background</title>
  <rect fill="none" id="canvas_background" height="1002" width="1002" y="-1" x="-1"/>
  <g display="none" overflow="visible" y="0" x="0" height="100%" width="100%" id="canvasGrid">
   <rect fill="url(#gridpattern)" stroke-width="0" y="0" x="0" height="100%" width="100%"/>
  </g>
 </g>
 <g>
  <title>Layer 1</title>
  <g stroke="null" id="svg_23">
   <g stroke="null" transform="matrix(4.216952908444583,0,0,4.216952908444583,-2817.225901912714,-2832.2435567109496) " id="svg_5">
    <g stroke="null" id="svg_6">
     <path fill="#ff4081" stroke="null" id="svg_7" d="m784.292114,677.548645c-57.380981,-0.716003 -122.934998,45.580994 -96.60199,94.924011c9.401001,17.610962 63.312988,7.172974 76.96698,3.236023c6.360046,-1.838013 12.886047,-3.546021 19.895996,-3.460022c32.084045,0.39801 57.767029,26.745972 57.376038,58.828979c-0.401978,32.090027 -26.73999,57.772034 -58.830017,57.375977c-32.088989,-0.395935 -57.770996,-26.733948 -57.372986,-58.828979c0.046997,-3.937988 0.507996,-7.778992 1.299988,-11.484985c-11.770996,8.263977 -13.786987,27.427002 -13.786987,27.427002c-8.281006,-6.608032 -22.46698,-11.89801 -35.252014,-14.52301c16.187012,41.481995 56.223022,71.154053 103.489014,71.744995c62.195984,0.774048 113.247009,-49.013 114.027039,-111.201965c0.768921,-62.204041 -49.02301,-113.257019 -111.21106,-114.038025z"/>
    </g>
   </g>
   <g stroke="null" transform="matrix(4.216952908444583,0,0,4.216952908444583,-2817.225901912714,-2832.2435567109496) " id="svg_8"/>
   <g stroke="null" transform="matrix(4.216952908444583,0,0,4.216952908444583,-2817.225901912714,-2832.2435567109496) " id="svg_9"/>
   <g stroke="null" transform="matrix(4.216952908444583,0,0,4.216952908444583,-2817.225901912714,-2832.2435567109496) " id="svg_10"/>
   <g stroke="null" transform="matrix(4.216952908444583,0,0,4.216952908444583,-2817.225901912714,-2832.2435567109496) " id="svg_11"/>
   <g stroke="null" transform="matrix(4.216952908444583,0,0,4.216952908444583,-2817.225901912714,-2832.2435567109496) " id="svg_12"/>
   <g stroke="null" transform="matrix(4.216952908444583,0,0,4.216952908444583,-2817.225901912714,-2832.2435567109496) " id="svg_13"/>
   <g stroke="null" transform="matrix(4.216952908444583,0,0,4.216952908444583,-2817.225901912714,-2832.2435567109496) " id="svg_14"/>
   <g stroke="null" transform="matrix(4.216952908444583,0,0,4.216952908444583,-2817.225901912714,-2832.2435567109496) " id="svg_15"/>
   <g stroke="null" transform="matrix(4.216952908444583,0,0,4.216952908444583,-2817.225901912714,-2832.2435567109496) " id="svg_16"/>
   <g stroke="null" transform="matrix(4.216952908444583,0,0,4.216952908444583,-2817.225901912714,-2832.2435567109496) " id="svg_17"/>
   <g stroke="null" transform="matrix(4.216952908444583,0,0,4.216952908444583,-2817.225901912714,-2832.2435567109496) " id="svg_18"/>
   <g stroke="null" transform="matrix(4.216952908444583,0,0,4.216952908444583,-2817.225901912714,-2832.2435567109496) " id="svg_19"/>
   <g stroke="null" transform="matrix(4.216952908444583,0,0,4.216952908444583,-2817.225901912714,-2832.2435567109496) " id="svg_20"/>
   <g stroke="null" transform="matrix(4.216952908444583,0,0,4.216952908444583,-2817.225901912714,-2832.2435567109496) " id="svg_21"/>
   <g stroke="null" transform="matrix(4.216952908444583,0,0,4.216952908444583,-2817.225901912714,-2832.2435567109496) " id="svg_22"/>
   <path stroke="#000" transform="rotate(90 503.74978637695307,653.7868041992189) " id="svg_25" d="m395.319946,748.664551l108.429413,-189.755493l108.430267,189.755493l-216.85968,0z" stroke-width="0" fill="#ffffff"/>
  </g>
 </g>
</svg>