<?xml version="1.0"?>
<svg width="1000" height="1000" xmlns="http://www.w3.org/2000/svg">
 <!-- Created with Method Draw - http://github.com/duopixel/Method-Draw/ -->

 <g>
  <title>background</title>
  <rect x="-1" y="-1" width="1002" height="1002" id="canvas_background" fill="none"/>
  <g id="canvasGrid" display="none">
   <rect id="svg_1" width="100%" height="100%" x="0" y="0" stroke-width="0" fill="url(#gridpattern)"/>
  </g>
 </g>
 <g>
  <title>Layer 1</title>
  <g id="svg_23" stroke="null">
   <g id="svg_5" transform="matrix(4.216952908444583,0,0,4.216952908444583,-2817.225901912714,-2832.2435567109496) " stroke="null">
    <g id="svg_6" stroke="null">
     <path d="m784.292114,677.548645c-57.380981,-0.716003 -122.934998,45.580994 -96.60199,94.924011c9.401001,17.610962 63.312988,7.172974 76.96698,3.236023c6.360046,-1.838013 12.886047,-3.546021 19.895996,-3.460022c32.084045,0.39801 57.767029,26.745972 57.376038,58.828979c-0.401978,32.090027 -26.73999,57.772034 -58.830017,57.375977c-32.088989,-0.395935 -57.770996,-26.733948 -57.372986,-58.828979c0.046997,-3.937988 0.507996,-7.778992 1.299988,-11.484985c-11.770996,8.263977 -13.786987,27.427002 -13.786987,27.427002c-8.281006,-6.608032 -22.46698,-11.89801 -35.252014,-14.52301c16.187012,41.481995 56.223022,71.154053 103.489014,71.744995c62.195984,0.774048 113.247009,-49.013 114.027039,-111.201965c0.768921,-62.204041 -49.02301,-113.257019 -111.21106,-114.038025z" id="svg_7" stroke="null" fill="#e65100"/>
    </g>
   </g>
   <g id="svg_8" transform="matrix(4.216952908444583,0,0,4.216952908444583,-2817.225901912714,-2832.2435567109496) " stroke="null"/>
   <g id="svg_9" transform="matrix(4.216952908444583,0,0,4.216952908444583,-2817.225901912714,-2832.2435567109496) " stroke="null"/>
   <g id="svg_10" transform="matrix(4.216952908444583,0,0,4.216952908444583,-2817.225901912714,-2832.2435567109496) " stroke="null"/>
   <g id="svg_11" transform="matrix(4.216952908444583,0,0,4.216952908444583,-2817.225901912714,-2832.2435567109496) " stroke="null"/>
   <g id="svg_12" transform="matrix(4.216952908444583,0,0,4.216952908444583,-2817.225901912714,-2832.2435567109496) " stroke="null"/>
   <g id="svg_13" transform="matrix(4.216952908444583,0,0,4.216952908444583,-2817.225901912714,-2832.2435567109496) " stroke="null"/>
   <g id="svg_14" transform="matrix(4.216952908444583,0,0,4.216952908444583,-2817.225901912714,-2832.2435567109496) " stroke="null"/>
   <g id="svg_15" transform="matrix(4.216952908444583,0,0,4.216952908444583,-2817.225901912714,-2832.2435567109496) " stroke="null"/>
   <g id="svg_16" transform="matrix(4.216952908444583,0,0,4.216952908444583,-2817.225901912714,-2832.2435567109496) " stroke="null"/>
   <g id="svg_17" transform="matrix(4.216952908444583,0,0,4.216952908444583,-2817.225901912714,-2832.2435567109496) " stroke="null"/>
   <g id="svg_18" transform="matrix(4.216952908444583,0,0,4.216952908444583,-2817.225901912714,-2832.2435567109496) " stroke="null"/>
   <g id="svg_19" transform="matrix(4.216952908444583,0,0,4.216952908444583,-2817.225901912714,-2832.2435567109496) " stroke="null"/>
   <g id="svg_20" transform="matrix(4.216952908444583,0,0,4.216952908444583,-2817.225901912714,-2832.2435567109496) " stroke="null"/>
   <g id="svg_21" transform="matrix(4.216952908444583,0,0,4.216952908444583,-2817.225901912714,-2832.2435567109496) " stroke="null"/>
   <g id="svg_22" transform="matrix(4.216952908444583,0,0,4.216952908444583,-2817.225901912714,-2832.2435567109496) " stroke="null"/>
   <path fill="#ffffff" stroke-width="0" d="m395.319946,748.664551l108.429413,-189.755493l108.430267,189.755493l-216.85968,0z" id="svg_25" transform="rotate(90 503.74978637695307,653.7868041992189) " stroke="#000"/>
  </g>
 </g>
</svg>